# xmcd CD database file
#
# Track frame offsets:
#	150
#	13264
#	37138
#	49567
#	94048
#	148933
#	174111
#	188008
#	202564
#	219565
#	232998
#	248815
#
# Disc length: 4460 seconds
#
# Revision: 0
# Processed by: cddbd v1.5.2PL0 Copyright (c) Steve Scherf et al.
# Submitted via: CDex 1.79
#
DISCID=9a116a0c
DTITLE=Various Artist - Men in Jazz CD1
DYEAR=2009
DGENRE=Jazz
TTITLE0=Duke Elington - Mood Indigo
TTITLE1=Thelonius Monk - Off Minor
TTITLE2=Glenn Miller Orchestra - Serenata a la luz de la luna
TTITLE3=Chick Corea - Sea Breeze
TTITLE4=Stan Getz - Autumn Leaves
TTITLE5=Charles Mingus - It Might as well be Spring
TTITLE6=Count Basie - Boogie Woogie
TTITLE7=Bing Crosby - Love in Bloom
TTITLE8=Dizzy Gillespie - Soul Mama
TTITLE9=Miles Davis - A night in Tunisia
TTITLE10=Louis Armstring - Stardust
TTITLE11=John Coltrane - Mr RCM JNR
EXTD=YEAR: 2009
EXTT0=
EXTT1=
EXTT2=
EXTT3=
EXTT4=
EXTT5=
EXTT6=
EXTT7=
EXTT8=
EXTT9=
EXTT10=
EXTT11=
PLAYORDER=
